STARTFONT 2.1
FONT -FontForge-VCR OSD Mono-Book-R-Normal--17-120-100-100-P-99-ISO10646-1
SIZE 12 100 100
FONTBOUNDINGBOX 10 14 0 0
COMMENT "Generated by fontforge, http://fontforge.sourceforge.net"
STARTPROPERTIES 39
FOUNDRY "FontForge"
FAMILY_NAME "VCR OSD Mono"
WEIGHT_NAME "Book"
SLANT "R"
SETWIDTH_NAME "Normal"
ADD_STYLE_NAME ""
PIXEL_SIZE 17
POINT_SIZE 120
RESOLUTION_X 100
RESOLUTION_Y 100
SPACING "P"
AVERAGE_WIDTH 99
CHARSET_REGISTRY "ISO10646"
CHARSET_ENCODING "1"
FONTNAME_REGISTRY ""
CHARSET_COLLECTIONS "ISO10646-1"
FONT_NAME "VCROSDMono"
FACE_NAME "VCR OSD Mono"
FONT_VERSION "1.001 March 31, 2015"
FONT_ASCENT 14
FONT_DESCENT 3
UNDERLINE_POSITION -2
UNDERLINE_THICKNESS 2
X_HEIGHT 9
CAP_HEIGHT 11
DEFAULT_CHAR 1
RAW_ASCENT 799
RAW_DESCENT 200
NORM_SPACE 10
RELATIVE_WEIGHT 40
RELATIVE_SETWIDTH 50
SUPERSCRIPT_X 0
SUPERSCRIPT_Y 7
SUPERSCRIPT_SIZE 11
SUBSCRIPT_X 0
SUBSCRIPT_Y 2
SUBSCRIPT_SIZE 11
AVG_LOWERCASE_WIDTH 98
AVG_UPPERCASE_WIDTH 99
ENDPROPERTIES
CHARS 95
STARTCHAR space
ENCODING 32
SWIDTH 585 0
DWIDTH 10 0
BBX 1 1 0 0
BITMAP
00
ENDCHAR
STARTCHAR exclam
ENCODING 33
SWIDTH 585 0
DWIDTH 10 0
BBX 2 11 3 1
BITMAP
C0
C0
C0
C0
C0
C0
C0
C0
00
C0
C0
ENDCHAR
STARTCHAR quotedbl
ENCODING 34
SWIDTH 585 0
DWIDTH 10 0
BBX 6 3 2 9
BITMAP
CC
CC
88
ENDCHAR
STARTCHAR numbersign
ENCODING 35
SWIDTH 585 0
DWIDTH 10 0
BBX 8 10 1 2
BITMAP
66
67
7F
FE
E6
67
7F
FE
E6
66
ENDCHAR
STARTCHAR dollar
ENCODING 36
SWIDTH 585 0
DWIDTH 10 0
BBX 8 11 1 1
BITMAP
3C
FF
DB
D8
7C
3E
1B
DB
7E
3C
18
ENDCHAR
STARTCHAR percent
ENCODING 37
SWIDTH 585 0
DWIDTH 10 0
BBX 8 11 1 1
BITMAP
63
F3
F3
F6
6C
18
36
6F
CF
CF
C6
ENDCHAR
STARTCHAR ampersand
ENCODING 38
SWIDTH 585 0
DWIDTH 10 0
BBX 9 13 1 1
BITMAP
1800
7C00
6600
6600
6600
3C00
3800
F800
DD80
CF80
E600
7F80
3D80
ENDCHAR
STARTCHAR quotesingle
ENCODING 39
SWIDTH 585 0
DWIDTH 10 0
BBX 2 3 4 9
BITMAP
C0
C0
80
ENDCHAR
STARTCHAR parenleft
ENCODING 40
SWIDTH 585 0
DWIDTH 10 0
BBX 5 13 2 1
BITMAP
18
30
60
C0
C0
C0
C0
C0
C0
C0
C0
30
18
ENDCHAR
STARTCHAR parenright
ENCODING 41
SWIDTH 585 0
DWIDTH 10 0
BBX 5 13 3 1
BITMAP
C0
60
30
18
18
18
18
18
18
18
18
60
C0
ENDCHAR
STARTCHAR asterisk
ENCODING 42
SWIDTH 585 0
DWIDTH 10 0
BBX 6 7 2 6
BITMAP
30
FC
FC
30
FC
FC
B4
ENDCHAR
STARTCHAR plus
ENCODING 43
SWIDTH 585 0
DWIDTH 10 0
BBX 8 9 1 2
BITMAP
18
18
18
FF
FF
18
18
18
18
ENDCHAR
STARTCHAR comma
ENCODING 44
SWIDTH 585 0
DWIDTH 10 0
BBX 4 3 2 1
BITMAP
30
20
C0
ENDCHAR
STARTCHAR hyphen
ENCODING 45
SWIDTH 585 0
DWIDTH 10 0
BBX 6 2 2 6
BITMAP
FC
FC
ENDCHAR
STARTCHAR period
ENCODING 46
SWIDTH 585 0
DWIDTH 10 0
BBX 2 2 3 1
BITMAP
C0
C0
ENDCHAR
STARTCHAR slash
ENCODING 47
SWIDTH 585 0
DWIDTH 10 0
BBX 8 11 1 1
BITMAP
03
03
07
06
0C
18
30
60
E0
C0
C0
ENDCHAR
STARTCHAR zero
ENCODING 48
SWIDTH 585 0
DWIDTH 10 0
BBX 8 11 1 1
BITMAP
3C
7E
C3
CF
CF
FF
FB
F3
C3
7E
3C
ENDCHAR
STARTCHAR one
ENCODING 49
SWIDTH 585 0
DWIDTH 10 0
BBX 5 11 3 1
BITMAP
60
E0
E0
60
60
60
60
60
60
F8
F8
ENDCHAR
STARTCHAR two
ENCODING 50
SWIDTH 585 0
DWIDTH 10 0
BBX 8 11 1 1
BITMAP
3C
4E
C3
03
3E
7C
C0
C0
C0
FF
FF
ENDCHAR
STARTCHAR three
ENCODING 51
SWIDTH 585 0
DWIDTH 9 0
BBX 7 11 1 1
BITMAP
38
5E
C6
06
1E
1E
06
06
C6
FE
38
ENDCHAR
STARTCHAR four
ENCODING 52
SWIDTH 585 0
DWIDTH 10 0
BBX 9 11 1 1
BITMAP
0600
1E00
1E00
3600
6600
C600
FF80
FF80
0600
0600
0600
ENDCHAR
STARTCHAR five
ENCODING 53
SWIDTH 585 0
DWIDTH 10 0
BBX 8 11 1 1
BITMAP
FF
FF
C0
FC
FE
03
03
03
C3
7E
3C
ENDCHAR
STARTCHAR six
ENCODING 54
SWIDTH 585 0
DWIDTH 10 0
BBX 8 11 1 1
BITMAP
3C
FE
C3
C0
FC
FE
C3
C3
C3
7E
3C
ENDCHAR
STARTCHAR seven
ENCODING 55
SWIDTH 585 0
DWIDTH 10 0
BBX 9 11 0 1
BITMAP
FF80
FF80
0180
0180
0300
0600
0C00
0C00
0C00
0C00
0C00
ENDCHAR
STARTCHAR eight
ENCODING 56
SWIDTH 585 0
DWIDTH 10 0
BBX 8 11 1 1
BITMAP
3C
FE
C3
C3
7E
7E
C3
C3
C3
7E
3C
ENDCHAR
STARTCHAR nine
ENCODING 57
SWIDTH 585 0
DWIDTH 10 0
BBX 8 11 1 1
BITMAP
3C
7E
C3
C3
7F
3F
03
03
C3
CF
3C
ENDCHAR
STARTCHAR colon
ENCODING 58
SWIDTH 585 0
DWIDTH 10 0
BBX 2 9 3 2
BITMAP
C0
C0
00
00
00
00
00
C0
C0
ENDCHAR
STARTCHAR semicolon
ENCODING 59
SWIDTH 585 0
DWIDTH 10 0
BBX 4 10 1 1
BITMAP
30
30
00
00
00
00
00
30
60
C0
ENDCHAR
STARTCHAR less
ENCODING 60
SWIDTH 585 0
DWIDTH 10 0
BBX 5 12 2 1
BITMAP
08
18
30
70
40
80
C0
60
70
38
18
08
ENDCHAR
STARTCHAR equal
ENCODING 61
SWIDTH 585 0
DWIDTH 10 0
BBX 8 5 1 4
BITMAP
FF
FF
00
FF
FF
ENDCHAR
STARTCHAR greater
ENCODING 62
SWIDTH 585 0
DWIDTH 10 0
BBX 6 12 1 1
BITMAP
C0
60
30
18
1C
04
0C
18
18
20
E0
C0
ENDCHAR
STARTCHAR question
ENCODING 63
SWIDTH 585 0
DWIDTH 10 0
BBX 8 11 1 1
BITMAP
3C
6E
C3
03
02
0C
1C
18
00
18
18
ENDCHAR
STARTCHAR at
ENCODING 64
SWIDTH 585 0
DWIDTH 10 0
BBX 8 10 1 2
BITMAP
7C
63
C3
95
ED
ED
EF
9B
63
7C
ENDCHAR
STARTCHAR A
ENCODING 65
SWIDTH 585 0
DWIDTH 10 0
BBX 8 11 1 1
BITMAP
18
3C
66
C3
C3
C3
FF
FF
C3
C3
C3
ENDCHAR
STARTCHAR B
ENCODING 66
SWIDTH 585 0
DWIDTH 10 0
BBX 8 11 1 1
BITMAP
FC
FE
C3
C3
FE
FE
C3
C3
C3
FE
FC
ENDCHAR
STARTCHAR C
ENCODING 67
SWIDTH 585 0
DWIDTH 10 0
BBX 8 11 1 1
BITMAP
3C
FE
C3
C0
C0
C0
C0
C0
C3
7E
3C
ENDCHAR
STARTCHAR D
ENCODING 68
SWIDTH 585 0
DWIDTH 10 0
BBX 8 11 1 1
BITMAP
FC
FE
C3
C3
C3
C3
C3
C3
C3
FE
FC
ENDCHAR
STARTCHAR E
ENCODING 69
SWIDTH 585 0
DWIDTH 10 0
BBX 9 11 1 1
BITMAP
FF80
FF80
C000
C000
FE00
FE00
C000
C000
C000
FF80
FF80
ENDCHAR
STARTCHAR F
ENCODING 70
SWIDTH 585 0
DWIDTH 10 0
BBX 9 11 1 1
BITMAP
FF80
FF80
C000
C000
FE00
FE00
C000
C000
C000
C000
C000
ENDCHAR
STARTCHAR G
ENCODING 71
SWIDTH 585 0
DWIDTH 10 0
BBX 8 11 1 1
BITMAP
3C
7F
C3
C0
CF
CF
C3
C3
C3
7E
3C
ENDCHAR
STARTCHAR H
ENCODING 72
SWIDTH 585 0
DWIDTH 10 0
BBX 8 11 1 1
BITMAP
C3
C3
C3
C3
FF
FF
C3
C3
C3
C3
C3
ENDCHAR
STARTCHAR I
ENCODING 73
SWIDTH 585 0
DWIDTH 10 0
BBX 6 11 2 1
BITMAP
FC
FC
30
30
30
30
30
30
30
FC
FC
ENDCHAR
STARTCHAR J
ENCODING 74
SWIDTH 585 0
DWIDTH 10 0
BBX 9 11 1 1
BITMAP
1F80
1F80
0600
0600
0600
0600
0600
0600
C600
FE00
3800
ENDCHAR
STARTCHAR K
ENCODING 75
SWIDTH 585 0
DWIDTH 10 0
BBX 8 11 1 1
BITMAP
C3
C6
CC
C8
F0
F0
D8
CC
CE
C3
C3
ENDCHAR
STARTCHAR L
ENCODING 76
SWIDTH 585 0
DWIDTH 10 0
BBX 9 11 1 1
BITMAP
C000
C000
C000
C000
C000
C000
C000
C000
C000
FF80
FF80
ENDCHAR
STARTCHAR M
ENCODING 77
SWIDTH 585 0
DWIDTH 10 0
BBX 8 11 1 1
BITMAP
C3
E7
E7
FB
DB
DB
C3
C3
C3
C3
C3
ENDCHAR
STARTCHAR N
ENCODING 78
SWIDTH 585 0
DWIDTH 10 0
BBX 8 11 1 1
BITMAP
C3
C3
E3
E3
D3
DB
CB
C7
C7
C3
C3
ENDCHAR
STARTCHAR O
ENCODING 79
SWIDTH 585 0
DWIDTH 10 0
BBX 8 11 1 1
BITMAP
3C
7E
C3
C3
C3
C3
C3
C3
C3
7E
3C
ENDCHAR
STARTCHAR P
ENCODING 80
SWIDTH 585 0
DWIDTH 10 0
BBX 8 11 1 1
BITMAP
FC
FE
C3
C3
FE
FC
C0
C0
C0
C0
C0
ENDCHAR
STARTCHAR Q
ENCODING 81
SWIDTH 585 0
DWIDTH 10 0
BBX 8 11 1 1
BITMAP
3C
7E
C3
C3
C3
C3
DB
CB
C6
7F
3B
ENDCHAR
STARTCHAR R
ENCODING 82
SWIDTH 585 0
DWIDTH 10 0
BBX 8 11 1 1
BITMAP
FC
FE
C3
C3
FE
FC
D8
CC
CE
C3
C3
ENDCHAR
STARTCHAR S
ENCODING 83
SWIDTH 585 0
DWIDTH 10 0
BBX 8 11 1 1
BITMAP
3C
7F
C3
C0
7C
3E
03
03
C3
7E
3C
ENDCHAR
STARTCHAR T
ENCODING 84
SWIDTH 585 0
DWIDTH 10 0
BBX 8 11 1 1
BITMAP
FF
FF
18
18
18
18
18
18
18
18
18
ENDCHAR
STARTCHAR U
ENCODING 85
SWIDTH 585 0
DWIDTH 10 0
BBX 8 11 1 1
BITMAP
C3
C3
C3
C3
C3
C3
C3
C3
C3
7E
3C
ENDCHAR
STARTCHAR V
ENCODING 86
SWIDTH 585 0
DWIDTH 10 0
BBX 8 11 1 1
BITMAP
C3
C3
C3
C3
C3
C3
C3
E7
66
18
18
ENDCHAR
STARTCHAR W
ENCODING 87
SWIDTH 585 0
DWIDTH 10 0
BBX 8 11 1 1
BITMAP
C3
C3
C3
C3
C3
DB
DB
DB
DB
7E
24
ENDCHAR
STARTCHAR X
ENCODING 88
SWIDTH 585 0
DWIDTH 9 0
BBX 7 11 1 1
BITMAP
C6
C6
C6
6C
38
38
38
6C
C6
C6
C6
ENDCHAR
STARTCHAR Y
ENCODING 89
SWIDTH 585 0
DWIDTH 10 0
BBX 8 11 1 1
BITMAP
C3
C3
C3
C3
E7
64
3C
18
18
18
18
ENDCHAR
STARTCHAR Z
ENCODING 90
SWIDTH 585 0
DWIDTH 10 0
BBX 8 11 1 1
BITMAP
FF
FF
03
02
0C
18
30
40
80
FF
FF
ENDCHAR
STARTCHAR bracketleft
ENCODING 91
SWIDTH 585 0
DWIDTH 10 0
BBX 5 13 3 1
BITMAP
F8
F8
C0
C0
C0
C0
C0
C0
C0
C0
C0
F8
F8
ENDCHAR
STARTCHAR backslash
ENCODING 92
SWIDTH 585 0
DWIDTH 10 0
BBX 8 11 1 1
BITMAP
C0
C0
E0
60
30
18
0C
06
07
03
03
ENDCHAR
STARTCHAR bracketright
ENCODING 93
SWIDTH 585 0
DWIDTH 10 0
BBX 5 13 2 1
BITMAP
F8
F8
18
18
18
18
18
18
18
18
18
F8
F8
ENDCHAR
STARTCHAR asciicircum
ENCODING 94
SWIDTH 585 0
DWIDTH 10 0
BBX 8 3 1 9
BITMAP
3C
7E
C3
ENDCHAR
STARTCHAR underscore
ENCODING 95
SWIDTH 585 0
DWIDTH 10 0
BBX 10 2 0 0
BITMAP
FFC0
FFC0
ENDCHAR
STARTCHAR grave
ENCODING 96
SWIDTH 585 0
DWIDTH 10 0
BBX 5 2 2 10
BITMAP
E0
78
ENDCHAR
STARTCHAR a
ENCODING 97
SWIDTH 585 0
DWIDTH 10 0
BBX 8 10 1 1
BITMAP
7C
3E
03
7F
7F
C3
C3
C3
7F
7F
ENDCHAR
STARTCHAR b
ENCODING 98
SWIDTH 585 0
DWIDTH 9 0
BBX 7 11 1 1
BITMAP
C0
C0
D8
FC
E6
C2
C2
C2
E6
FC
D8
ENDCHAR
STARTCHAR c
ENCODING 99
SWIDTH 585 0
DWIDTH 10 0
BBX 8 9 1 1
BITMAP
3C
4F
C3
C0
C0
C0
C3
F3
3C
ENDCHAR
STARTCHAR d
ENCODING 100
SWIDTH 585 0
DWIDTH 10 0
BBX 8 11 1 1
BITMAP
03
03
1B
6F
E7
C3
C3
C3
E7
6F
1B
ENDCHAR
STARTCHAR e
ENCODING 101
SWIDTH 585 0
DWIDTH 10 0
BBX 8 9 1 1
BITMAP
3E
7E
C1
FF
FE
C0
C0
FF
7E
ENDCHAR
STARTCHAR f
ENCODING 102
SWIDTH 585 0
DWIDTH 10 0
BBX 7 11 1 1
BITMAP
0E
1E
FE
FE
18
18
18
18
18
18
18
ENDCHAR
STARTCHAR g
ENCODING 103
SWIDTH 585 0
DWIDTH 10 0
BBX 8 10 1 1
BITMAP
7C
FE
83
C3
FF
7F
03
03
FE
FE
ENDCHAR
STARTCHAR h
ENCODING 104
SWIDTH 585 0
DWIDTH 10 0
BBX 8 11 1 1
BITMAP
C0
C0
D8
D6
E7
E3
C3
C3
C3
C3
C3
ENDCHAR
STARTCHAR i
ENCODING 105
SWIDTH 585 0
DWIDTH 10 0
BBX 5 11 3 1
BITMAP
60
60
00
00
E0
E0
60
60
60
78
18
ENDCHAR
STARTCHAR j
ENCODING 106
SWIDTH 585 0
DWIDTH 10 0
BBX 5 12 3 1
BITMAP
18
18
00
78
78
18
18
18
18
38
F0
E0
ENDCHAR
STARTCHAR k
ENCODING 107
SWIDTH 585 0
DWIDTH 9 0
BBX 8 11 1 1
BITMAP
C0
C0
C3
C6
C6
D8
D8
E8
E6
C6
C3
ENDCHAR
STARTCHAR l
ENCODING 108
SWIDTH 585 0
DWIDTH 10 0
BBX 2 11 4 1
BITMAP
C0
C0
C0
C0
C0
C0
C0
C0
C0
C0
C0
ENDCHAR
STARTCHAR m
ENCODING 109
SWIDTH 585 0
DWIDTH 10 0
BBX 8 9 1 1
BITMAP
DC
FE
FF
DB
DB
DB
DB
DB
DB
ENDCHAR
STARTCHAR n
ENCODING 110
SWIDTH 585 0
DWIDTH 10 0
BBX 8 9 1 1
BITMAP
DC
FE
E7
C3
C3
C3
C3
C3
C3
ENDCHAR
STARTCHAR o
ENCODING 111
SWIDTH 585 0
DWIDTH 10 0
BBX 8 9 1 1
BITMAP
3C
7E
C3
C3
C3
C3
C3
7E
3C
ENDCHAR
STARTCHAR p
ENCODING 112
SWIDTH 585 0
DWIDTH 9 0
BBX 7 10 1 1
BITMAP
FC
FE
C2
C2
C2
FE
FC
C0
C0
C0
ENDCHAR
STARTCHAR q
ENCODING 113
SWIDTH 585 0
DWIDTH 10 0
BBX 8 10 1 1
BITMAP
3F
7F
C3
C3
C3
C7
7F
3B
03
03
ENDCHAR
STARTCHAR r
ENCODING 114
SWIDTH 585 0
DWIDTH 10 0
BBX 9 9 1 1
BITMAP
CE00
DF80
F180
E000
C000
C000
C000
C000
C000
ENDCHAR
STARTCHAR s
ENCODING 115
SWIDTH 585 0
DWIDTH 10 0
BBX 8 9 1 1
BITMAP
3C
7E
C3
78
3C
0E
C3
FF
3C
ENDCHAR
STARTCHAR t
ENCODING 116
SWIDTH 585 0
DWIDTH 10 0
BBX 6 11 2 1
BITMAP
30
30
FC
FC
30
30
30
30
30
1C
0C
ENDCHAR
STARTCHAR u
ENCODING 117
SWIDTH 585 0
DWIDTH 10 0
BBX 8 9 1 1
BITMAP
C3
C3
C3
C3
C3
C3
C3
7E
3C
ENDCHAR
STARTCHAR v
ENCODING 118
SWIDTH 585 0
DWIDTH 10 0
BBX 8 9 1 1
BITMAP
C3
C3
C3
C3
C3
E7
66
18
18
ENDCHAR
STARTCHAR w
ENCODING 119
SWIDTH 585 0
DWIDTH 10 0
BBX 8 9 1 1
BITMAP
C3
C3
C3
DB
DB
DB
DB
7E
24
ENDCHAR
STARTCHAR x
ENCODING 120
SWIDTH 585 0
DWIDTH 9 0
BBX 8 9 1 1
BITMAP
C6
C6
7C
38
10
38
38
C6
C7
ENDCHAR
STARTCHAR y
ENCODING 121
SWIDTH 585 0
DWIDTH 10 0
BBX 8 10 1 1
BITMAP
C3
C3
C3
C3
C7
7F
3B
03
3E
3C
ENDCHAR
STARTCHAR z
ENCODING 122
SWIDTH 585 0
DWIDTH 10 0
BBX 8 9 1 1
BITMAP
FF
FF
02
0C
1C
30
60
FF
FF
ENDCHAR
STARTCHAR braceleft
ENCODING 123
SWIDTH 585 0
DWIDTH 9 0
BBX 6 13 2 1
BITMAP
18
18
20
20
20
20
C0
C0
30
30
30
3C
3C
ENDCHAR
STARTCHAR bar
ENCODING 124
SWIDTH 585 0
DWIDTH 10 0
BBX 2 13 4 1
BITMAP
C0
C0
C0
C0
C0
C0
C0
C0
C0
C0
C0
C0
C0
ENDCHAR
STARTCHAR braceright
ENCODING 125
SWIDTH 585 0
DWIDTH 9 0
BBX 5 13 2 1
BITMAP
C0
C0
30
30
30
30
18
18
30
30
30
F0
C0
ENDCHAR
STARTCHAR asciitilde
ENCODING 126
SWIDTH 585 0
DWIDTH 10 0
BBX 8 4 1 5
BITMAP
71
7B
9E
8C
ENDCHAR
ENDFONT
